<svg width="32" height="25" viewBox="0 0 32 25" fill="none" xmlns="http://www.w3.org/2000/svg">
<path fill-rule="evenodd" clip-rule="evenodd" d="M1.9001 3.88471C1.9001 2.78864 2.78864 1.9001 3.88471 1.9001H28.1155C29.2116 1.9001 30.1001 2.78864 30.1001 3.88471V21.1924C30.1001 22.2885 29.2116 23.177 28.1155 23.177H3.88471C2.78864 23.177 1.9001 22.2885 1.9001 21.1924V3.88471ZM3.88471 0.100098C1.79453 0.100098 0.100098 1.79453 0.100098 3.88471V21.1924C0.100098 23.2826 1.79453 24.977 3.88471 24.977H28.1155C30.2057 24.977 31.9001 23.2826 31.9001 21.1924V3.88471C31.9001 1.79453 30.2057 0.100098 28.1155 0.100098H3.88471ZM6.16788 4.90516C5.77553 4.6 5.21008 4.67068 4.90492 5.06303C4.59975 5.45538 4.67043 6.02083 5.06279 6.32599L15.4474 14.4029C15.7724 14.6557 16.2275 14.6557 16.5525 14.4029L26.9371 6.32599C27.3295 6.02083 27.4001 5.45538 27.095 5.06303C26.7898 4.67068 26.2244 4.6 25.832 4.90516L15.9999 12.5523L6.16788 4.90516Z" fill="#FFD900"/>
</svg>
