<svg width="32" height="32" viewBox="0 0 32 32" fill="none" xmlns="http://www.w3.org/2000/svg">
<path d="M13.2668 9.59395C13.2668 10.5314 13.2668 11.4401 13.5624 12.2911C10.4543 15.9401 2.24759 25.5819 1.48317 26.3174C1.33124 26.4537 1.20971 26.6205 1.12646 26.8069C1.04322 26.9932 1.00013 27.195 1 27.3992C1 28.0121 1.375 28.6035 1.6923 28.9352C2.16826 29.4328 4.20191 31.315 4.57691 30.9544C5.68748 29.8727 5.91103 29.5842 6.36536 29.1371C7.05045 28.4665 6.29324 27.0963 6.53122 26.541C6.7692 25.9857 7.02161 25.8775 7.43266 25.791C7.84372 25.7045 8.57208 26.0001 9.14179 26.0073C9.74034 26.0145 10.0649 25.7621 10.512 25.3439C10.8725 25.0121 11.1322 24.7021 11.1394 24.2189C11.1538 23.5698 10.2163 22.7117 10.9158 22.0266C11.6153 21.3415 12.6249 22.4737 13.3677 22.3872C14.1105 22.3006 15.012 21.2694 15.1057 20.8295C15.1995 20.3896 14.262 19.2574 14.4062 18.6155C14.4567 18.3992 14.8966 17.8944 15.2283 17.8223C15.56 17.7502 17.0312 18.3199 17.3629 18.2478C17.7667 18.1612 18.2355 17.7357 18.6177 17.4978C19.7355 17.9809 20.7523 18.1756 22.0576 18.1756C26.9975 18.1756 30.9999 14.3247 30.9999 9.57953C30.9999 4.83436 26.9975 1 22.0576 1C17.1177 1 13.2668 4.84878 13.2668 9.59395V9.59395ZM26.3845 7.92304C26.3845 8.37946 26.2492 8.82563 25.9956 9.20512C25.742 9.58462 25.3816 9.8804 24.9599 10.0551C24.5383 10.2297 24.0743 10.2754 23.6266 10.1864C23.179 10.0973 22.7678 9.87756 22.445 9.55482C22.1223 9.23209 21.9025 8.8209 21.8135 8.37325C21.7244 7.9256 21.7701 7.46161 21.9448 7.03993C22.1195 6.61826 22.4152 6.25785 22.7947 6.00428C23.1742 5.75071 23.6204 5.61536 24.0768 5.61536C24.6889 5.61536 25.2758 5.85849 25.7086 6.29127C26.1414 6.72404 26.3845 7.31101 26.3845 7.92304Z" stroke="#FFD900" stroke-width="1.8" stroke-linejoin="round"/>
</svg>
