<svg width="262" height="56" viewBox="0 0 262 56" fill="none" xmlns="http://www.w3.org/2000/svg">
<path d="M42.1717 25.5082C40.6635 21.6393 38.5652 18.0984 36.0734 14.6885C32.3357 9.57377 27.9422 4.98361 23.1553 0.721312C22.893 0.52459 22.6307 0.262295 22.3029 0C22.1717 0.131148 22.0406 0.196721 21.975 0.262295C20.2045 1.90164 18.434 3.47541 16.6635 5.18033C12.8602 8.85246 9.31926 12.8525 6.36844 17.2459C4.00778 20.7213 2.04057 24.3934 0.860242 28.3934C0.00778347 31.4754 -0.254512 34.6229 0.270079 37.7705C0.729095 41.2459 2.04057 44.3934 4.2045 47.2131C7.87664 51.9344 12.7291 54.8197 18.8275 55.7377C19.4832 55.8689 20.1389 55.9344 20.8602 56H23.2209C23.6799 55.9344 24.1389 55.8689 24.5979 55.8689C28.9258 55.3443 32.7947 53.7705 36.1389 51.082C41.1881 46.9508 43.8111 41.5738 44.0734 35.2131C44.1389 31.8033 43.352 28.5902 42.1717 25.5082ZM34.6307 45.7705C35.0898 44.7213 35.2865 43.4754 35.2865 42.0984C35.2865 39.8689 34.7619 38.0984 33.6471 36.8525C32.5324 35.6066 31.2209 34.6885 29.7783 34.1639C28.2701 33.6393 26.3684 33.1148 24.1389 32.7213L22.6963 32.459C21.1881 32.1311 20.0734 31.8689 19.4176 31.6721C18.7619 31.4754 18.1061 31.2131 17.5816 30.8197C16.9914 30.4262 16.7291 29.9016 16.7291 29.2459C16.7291 28.1967 17.2537 27.4098 18.3684 26.9508C19.4832 26.4918 20.6635 26.2951 21.9094 26.2951C23.352 26.2951 24.7947 26.5574 26.2373 27.082C27.6799 27.6066 29.057 28.3934 30.434 29.3115L34.0406 24.3934C32.2045 23.082 30.434 22.0328 28.5979 21.377C26.7619 20.7213 24.6635 20.3934 22.1717 20.3934C18.9586 20.3934 16.2045 21.1148 13.8438 22.4918C11.4832 23.9344 10.3029 26.2295 10.3029 29.4426C10.3029 31.6066 10.9586 33.377 12.3357 34.6885C13.7127 36 15.1553 36.8525 16.7947 37.377C18.434 37.9016 20.2701 38.2951 22.2373 38.623C23.7455 38.8852 24.9258 39.1475 25.8439 39.4098C26.7619 39.6066 27.4832 40 28.0734 40.459C28.6635 40.918 28.9258 41.5082 28.9258 42.2951C28.9258 43.2131 28.4012 44 27.4176 44.6557C26.434 45.3115 25.057 45.6393 23.352 45.6393C21.7127 45.6393 19.9422 45.2459 17.975 44.459C16.0078 43.6721 14.4996 42.8197 13.2537 41.8361L10.3029 46.1639C9.77827 45.6393 9.31926 45.1148 8.86024 44.5246C7.2209 42.4262 6.23729 40 5.84385 37.377C5.38483 34.8852 5.58155 32.5246 6.30287 30.1639C7.2209 27.1475 8.66352 24.3279 10.434 21.7049C12.6635 18.3607 15.352 15.4098 18.2373 12.5902C19.5488 11.3443 20.9258 10.0984 22.2373 8.85246C22.3029 8.78689 22.434 8.72131 22.4996 8.65574C22.6963 8.85246 22.9586 9.04918 23.1553 9.2459C26.7619 12.459 30.1061 15.9344 32.9258 19.8033C34.8275 22.3607 36.4012 25.0492 37.5816 28C38.4996 30.3607 39.0242 32.7869 38.9586 35.2787C38.8275 39.3443 37.3848 42.8852 34.6307 45.7705Z" fill="#FFD900"/>
<path d="M34.6305 45.7703C35.0895 44.7211 35.2862 43.4752 35.2862 42.0981C35.2862 39.8686 34.7616 38.0981 33.6469 36.8522C32.5321 35.6063 31.2207 34.6883 29.778 34.1637C28.2698 33.6391 26.3682 33.1145 24.1387 32.7211L22.6961 32.4588C21.1879 32.1309 20.0731 31.8686 19.4174 31.6719C18.7616 31.4752 18.1059 31.2129 17.5813 30.8195C16.9911 30.426 16.7289 29.9014 16.7289 29.2457C16.7289 28.1965 17.2534 27.4096 18.3682 26.9506C19.4829 26.4916 20.6633 26.2949 21.9092 26.2949C23.3518 26.2949 24.7944 26.5572 26.237 27.0817C27.6797 27.6063 29.0567 28.3932 30.4338 29.3113L34.0403 24.3932C32.2043 23.0817 30.4338 22.0326 28.5977 21.3768C26.7616 20.7211 24.6633 20.3932 22.1715 20.3932C18.9584 20.3932 16.2043 21.1145 13.8436 22.4916C11.4829 23.9342 10.3026 26.2293 10.3026 29.4424C10.3026 31.6063 10.9584 33.3768 12.3354 34.6883C13.7125 35.9998 15.1551 36.8522 16.7944 37.3768C18.4338 37.9014 20.2698 38.2949 22.237 38.6227C23.7452 38.885 24.9256 39.1473 25.8436 39.4096C26.7616 39.6063 27.4829 39.9998 28.0731 40.4588C28.6633 40.9178 28.9256 41.508 28.9256 42.2949C28.9256 43.2129 28.401 43.9998 27.4174 44.6555C26.4338 45.3113 25.0567 45.6391 23.3518 45.6391C21.7125 45.6391 19.942 45.2457 17.9748 44.4588C16.0075 43.6719 14.4993 42.8195 13.2534 41.8358L10.3026 46.1637C9.77803 45.6391 9.31901 45.1145 8.86 44.5244C7.22065 42.426 6.23705 39.9998 5.8436 37.3768C5.38459 34.885 5.58131 32.5244 6.30262 30.1637C7.22065 27.1473 8.66328 24.3276 10.4338 21.7047C12.6633 18.3604 15.3518 15.4096 18.237 12.5899C19.5485 11.344 20.9256 10.0981 22.237 8.85224C22.3026 8.78667 22.4338 8.72109 22.4993 8.65552C22.6961 8.85224 22.9584 9.04896 23.1551 9.24568C26.7616 12.4588 30.1059 15.9342 32.9256 19.8031C34.8272 22.3604 36.401 25.049 37.5813 27.9998C38.4993 30.3604 39.0239 32.7867 38.9584 35.2785C38.8272 39.344 37.3846 42.885 34.6305 45.7703Z" fill="#002169"/>
<path d="M53.3337 36.9956C54.4146 37.9005 55.8474 38.7174 57.6321 39.4464C59.4168 40.1502 61.0507 40.5021 62.5337 40.5021C64.0922 40.5021 65.3239 40.2005 66.2288 39.5972C67.1589 38.9939 67.6239 38.2775 67.6239 37.448C67.6239 36.7693 67.3474 36.2163 66.7944 35.789C66.2665 35.3617 65.5878 35.0475 64.7583 34.8464C63.9288 34.6201 62.8354 34.3813 61.478 34.13C59.6681 33.8283 58.0091 33.4387 56.5009 32.9611C54.9927 32.4835 53.6228 31.654 52.3911 30.4726C51.1594 29.2912 50.5436 27.695 50.5436 25.6841C50.5436 22.718 51.6244 20.5939 53.7862 19.3119C55.9731 18.0048 58.537 17.3513 61.478 17.3513C63.7403 17.3513 65.7009 17.6655 67.3599 18.2939C69.0441 18.8972 70.7157 19.8147 72.3747 21.0464L69.0567 25.571C67.825 24.6912 66.543 23.9999 65.2108 23.4972C63.8785 22.9945 62.5589 22.7431 61.2517 22.7431C60.0955 22.7431 59.0146 22.9568 58.0091 23.3841C57.0037 23.7863 56.5009 24.4775 56.5009 25.4578C56.5009 26.0611 56.7523 26.5513 57.255 26.9283C57.7829 27.2802 58.3485 27.5442 58.9518 27.7201C59.5802 27.871 60.5856 28.0972 61.9681 28.3988L63.3255 28.6628C65.4119 29.0649 67.1337 29.5174 68.4911 30.0201C69.8736 30.4977 71.0676 31.3147 72.0731 32.471C73.0785 33.6272 73.5813 35.236 73.5813 37.2972C73.5813 40.0874 72.5884 42.2114 70.6026 43.6693C68.6419 45.1272 65.9774 45.8562 62.6091 45.8562C57.6824 45.8562 53.5348 44.4234 50.1665 41.5578L53.3337 36.9956Z" fill="white"/>
<path d="M84.9693 45.8185C82.9333 45.8185 81.048 45.3409 79.3136 44.3857C77.6043 43.4054 76.2469 42.0857 75.2415 40.4267C74.236 38.7677 73.7333 36.9578 73.7333 34.9972C73.7333 33.0617 74.236 31.2644 75.2415 29.6054C76.2469 27.9464 77.6043 26.6393 79.3136 25.6841C81.048 24.7037 82.9333 24.2136 84.9693 24.2136C87.0054 24.2136 88.8906 24.7037 90.6251 25.6841C92.3595 26.6393 93.7294 27.9464 94.7349 29.6054C95.7655 31.2644 96.2808 33.0617 96.2808 34.9972C96.2808 36.9578 95.7655 38.7677 94.7349 40.4267C93.7294 42.0857 92.3595 43.4054 90.6251 44.3857C88.8906 45.3409 87.0054 45.8185 84.9693 45.8185ZM84.9693 29.1529C83.9387 29.1529 82.9835 29.4169 82.1037 29.9447C81.224 30.4475 80.5327 31.1513 80.03 32.0562C79.5272 32.936 79.2759 33.9163 79.2759 34.9972C79.2759 36.1283 79.5147 37.1464 79.9923 38.0513C80.495 38.9311 81.1737 39.6349 82.0283 40.1628C82.9081 40.6655 83.8884 40.9169 84.9693 40.9169C86.0251 40.9169 86.9803 40.6655 87.8349 40.1628C88.7147 39.6349 89.4059 38.9185 89.9087 38.0136C90.4114 37.1087 90.6628 36.1032 90.6628 34.9972C90.6628 33.9163 90.4114 32.936 89.9087 32.0562C89.4059 31.1513 88.7147 30.4475 87.8349 29.9447C86.9803 29.4169 86.0251 29.1529 84.9693 29.1529Z" fill="white"/>
<path d="M108.208 45.8562C106.172 45.8562 104.287 45.3786 102.552 44.4234C100.818 43.4431 99.4355 42.1234 98.4049 40.4644C97.3995 38.8054 96.8967 36.9956 96.8967 35.0349C96.8967 33.0742 97.3995 31.277 98.4049 29.6431C99.4355 27.9841 100.805 26.677 102.515 25.7218C104.249 24.7415 106.134 24.2513 108.171 24.2513C110.357 24.2513 112.331 24.7792 114.09 25.8349C115.875 26.8655 117.295 28.3486 118.351 30.2841L113.261 32.2824C112.657 31.2518 111.916 30.4852 111.036 29.9824C110.156 29.4546 109.201 29.1906 108.171 29.1906C106.537 29.1906 105.179 29.7436 104.098 30.8496C103.043 31.9557 102.515 33.3507 102.515 35.0349C102.515 36.719 103.055 38.1141 104.136 39.2201C105.217 40.3262 106.574 40.8792 108.208 40.8792C110.471 40.8792 112.218 39.8737 113.449 37.8628L118.238 39.748C116.252 43.8201 112.909 45.8562 108.208 45.8562Z" fill="white"/>
<path d="M125.567 19.3496C125.567 20.2043 125.266 20.9333 124.662 21.5365C124.059 22.1147 123.33 22.4037 122.475 22.4037C121.596 22.4037 120.842 22.1147 120.213 21.5365C119.61 20.9333 119.308 20.2043 119.308 19.3496C119.308 18.5201 119.61 17.8163 120.213 17.2382C120.842 16.6349 121.596 16.3333 122.475 16.3333C123.33 16.3333 124.059 16.6349 124.662 17.2382C125.266 17.8163 125.567 18.5201 125.567 19.3496ZM119.648 24.6283H125.303V45.3283H119.648V24.6283Z" fill="white"/>
<path d="M138.111 45.8185C136.075 45.8185 134.19 45.3409 132.455 44.3857C130.746 43.4054 129.389 42.0857 128.383 40.4267C127.378 38.7677 126.875 36.9578 126.875 34.9972C126.875 33.0617 127.378 31.2644 128.383 29.6054C129.389 27.9464 130.746 26.6393 132.455 25.6841C134.19 24.7037 136.075 24.2136 138.111 24.2136C140.147 24.2136 142.032 24.7037 143.767 25.6841C145.501 26.6393 146.871 27.9464 147.877 29.6054C148.907 31.2644 149.423 33.0617 149.423 34.9972C149.423 36.9578 148.907 38.7677 147.877 40.4267C146.871 42.0857 145.501 43.4054 143.767 44.3857C142.032 45.3409 140.147 45.8185 138.111 45.8185ZM138.111 29.1529C137.081 29.1529 136.125 29.4169 135.246 29.9447C134.366 30.4475 133.675 31.1513 133.172 32.0562C132.669 32.936 132.418 33.9163 132.418 34.9972C132.418 36.1283 132.657 37.1464 133.134 38.0513C133.637 38.9311 134.316 39.6349 135.17 40.1628C136.05 40.6655 137.03 40.9169 138.111 40.9169C139.167 40.9169 140.122 40.6655 140.977 40.1628C141.857 39.6349 142.548 38.9185 143.051 38.0136C143.553 37.1087 143.805 36.1032 143.805 34.9972C143.805 33.9163 143.553 32.936 143.051 32.0562C142.548 31.1513 141.857 30.4475 140.977 29.9447C140.122 29.4169 139.167 29.1529 138.111 29.1529Z" fill="white"/>
<path d="M153.281 36.9956C154.362 37.9005 155.795 38.7174 157.58 39.4464C159.364 40.1502 160.998 40.5021 162.481 40.5021C164.04 40.5021 165.271 40.2005 166.176 39.5972C167.106 38.9939 167.571 38.2775 167.571 37.448C167.571 36.7693 167.295 36.2163 166.742 35.789C166.214 35.3617 165.535 35.0475 164.706 34.8464C163.876 34.6201 162.783 34.3813 161.425 34.13C159.616 33.8283 157.957 33.4387 156.448 32.9611C154.94 32.4835 153.57 31.654 152.339 30.4726C151.107 29.2912 150.491 27.695 150.491 25.6841C150.491 22.718 151.572 20.5939 153.734 19.3119C155.921 18.0048 158.484 17.3513 161.425 17.3513C163.688 17.3513 165.648 17.6655 167.307 18.2939C168.992 18.8972 170.663 19.8147 172.322 21.0464L169.004 25.571C167.772 24.6912 166.49 23.9999 165.158 23.4972C163.826 22.9945 162.506 22.7431 161.199 22.7431C160.043 22.7431 158.962 22.9568 157.957 23.3841C156.951 23.7863 156.448 24.4775 156.448 25.4578C156.448 26.0611 156.7 26.5513 157.203 26.9283C157.73 27.2802 158.296 27.5442 158.899 27.7201C159.528 27.871 160.533 28.0972 161.916 28.3988L163.273 28.6628C165.359 29.0649 167.081 29.5174 168.439 30.0201C169.821 30.4977 171.015 31.3147 172.021 32.471C173.026 33.6272 173.529 35.236 173.529 37.2972C173.529 40.0874 172.536 42.2114 170.55 43.6693C168.589 45.1272 165.925 45.8562 162.557 45.8562C157.63 45.8562 153.482 44.4234 150.114 41.5578L153.281 36.9956Z" fill="white"/>
<path d="M199.132 24.2136C202.022 24.2136 204.171 24.9928 205.579 26.5513C207.012 28.1098 207.728 30.2841 207.728 33.0742V45.3283H202.035V33.0742C202.035 31.5912 201.658 30.5229 200.904 29.8693C200.175 29.2158 199.207 28.889 198 28.889C196.995 28.889 196.09 29.266 195.286 30.0201C194.481 30.7742 194.067 32.0311 194.041 33.7906V45.3283H188.348V33.0742C188.348 31.5912 187.971 30.5229 187.217 29.8693C186.488 29.2158 185.533 28.889 184.351 28.889C183.27 28.889 182.328 29.2912 181.523 30.0955C180.744 30.8999 180.355 32.3201 180.355 34.3562L180.317 45.3283H174.699V24.5906H180.317V26.4759C181.046 25.8223 181.926 25.2819 182.956 24.8546C183.987 24.4272 184.929 24.2136 185.784 24.2136C188.7 24.2136 190.924 25.1562 192.458 27.0415C193.237 26.1617 194.205 25.4704 195.361 24.9677C196.517 24.4649 197.774 24.2136 199.132 24.2136Z" fill="white"/>
<path d="M226.288 43.2546C225.81 43.9081 224.981 44.4988 223.799 45.0267C222.643 45.5294 221.373 45.7808 219.991 45.7808C217.854 45.7808 215.994 45.3032 214.411 44.348C212.852 43.3928 211.658 42.0983 210.829 40.4644C209.999 38.8054 209.584 36.9704 209.584 34.9595C209.584 32.9486 209.999 31.1262 210.829 29.4923C211.658 27.8333 212.852 26.5261 214.411 25.571C215.994 24.6158 217.854 24.1382 219.991 24.1382C221.424 24.1382 222.681 24.3895 223.761 24.8923C224.867 25.3699 225.71 25.9857 226.288 26.7398V24.5906H231.868V45.3283H226.288V43.2546ZM226.514 34.9595C226.514 33.2251 225.999 31.8174 224.968 30.7365C223.937 29.6305 222.555 29.0775 220.82 29.0775C219.061 29.0775 217.666 29.6305 216.635 30.7365C215.63 31.8174 215.127 33.2251 215.127 34.9595C215.127 36.6436 215.642 38.0387 216.673 39.1447C217.729 40.2507 219.111 40.8037 220.82 40.8037C222.58 40.8037 223.963 40.2884 224.968 39.2578C225.999 38.2021 226.514 36.7693 226.514 34.9595Z" fill="white"/>
<path d="M247.059 29.7185C246.305 29.6431 245.387 29.7436 244.306 30.0201C243.226 30.2715 242.233 30.8874 241.328 31.8677C240.423 32.848 239.97 34.2808 239.97 36.166V45.3283H234.352V24.5906H239.97V27.3431C240.9 26.1114 242.032 25.2819 243.364 24.8546C244.721 24.4021 245.953 24.1884 247.059 24.2136V29.7185Z" fill="white"/>
<path d="M257.384 37.9382C257.384 38.818 257.534 39.5595 257.836 40.1628C258.138 40.7409 258.842 41.03 259.948 41.03C260.45 41.03 260.928 41.0048 261.38 40.9546V45.7054C260.475 45.8059 259.633 45.8562 258.854 45.8562C257.245 45.8562 255.938 45.718 254.933 45.4415C253.952 45.1901 253.186 44.6874 252.633 43.9333C252.08 43.1792 251.803 42.0983 251.803 40.6906V29.1906H249.277V24.2513H251.803V18.7087H257.384V24.2513H261.531V29.1906H257.384V37.9382Z" fill="white"/>
</svg>
