<svg width="30" height="30" viewBox="0 0 30 30" fill="none" xmlns="http://www.w3.org/2000/svg">
<path fill-rule="evenodd" clip-rule="evenodd" d="M7.02295 0.475838C7.24758 0.652255 7.49986 0.8896 7.7901 1.17628C8.41193 1.78828 9.13334 2.76882 9.75237 3.71014C10.3783 4.66201 10.9584 5.66405 11.2835 6.36149L11.2837 6.36194L11.2839 6.36238C11.4682 6.75866 11.6343 7.11776 11.751 7.43249C11.8696 7.7521 11.9681 8.10366 11.9687 8.48731C11.97 9.29036 11.5342 9.91016 11.1143 10.4818C10.9937 10.646 10.8912 10.7806 10.8029 10.8966C10.6125 11.1466 10.4876 11.3105 10.3877 11.5001C10.2902 11.685 10.2618 11.8185 10.3079 12.0334C10.3745 12.3433 10.6637 13.0216 11.2253 13.909C11.7684 14.7672 12.512 15.7352 13.4004 16.6209C14.2887 17.5063 15.2413 18.2303 16.0824 18.7542C16.9491 19.294 17.6165 19.5711 17.9353 19.6391C18.1572 19.6865 18.2957 19.6569 18.481 19.5604C18.6765 19.4587 18.8504 19.3259 19.1207 19.1195C19.227 19.0384 19.3482 18.9459 19.4914 18.8394L19.4916 18.8392L19.5024 18.8312C20.076 18.405 20.7134 17.9315 21.5212 17.9324C21.9203 17.9328 22.2786 18.0455 22.594 18.1742C22.8954 18.2973 23.2416 18.4717 23.6214 18.663L23.6531 18.679C24.3188 19.0147 25.3086 19.5833 26.2667 20.2032C27.2079 20.8121 28.2011 21.523 28.8195 22.1461L28.8204 22.147C29.1079 22.4373 29.3458 22.6896 29.5227 22.9141C29.6939 23.1315 29.8818 23.4127 29.961 23.7624C30.0503 24.1564 29.9694 24.4841 29.8864 24.7115C29.849 24.814 29.8049 24.9123 29.7732 24.9827C29.7683 24.9937 29.7635 25.0044 29.7587 25.0149C29.7293 25.0802 29.7036 25.1371 29.6764 25.2023L29.6757 25.2039L29.6751 25.2055C29.3952 25.8692 29.0547 26.5057 28.658 27.1069L28.6568 27.1087L28.6556 27.1105C27.8805 28.2751 27.1513 29.0359 26.0177 29.5639C25.4287 29.8383 24.5871 30.1154 23.2791 29.9523C22.0211 29.7954 20.3844 29.2384 18.1506 27.9873L18.15 27.987C14.5754 25.9823 12.0951 24.2539 8.89557 21.0633C5.70542 17.882 4.13738 15.8058 1.94082 11.8154C-0.270507 7.79817 -0.26734 5.32088 0.364162 3.97144C0.894385 2.83842 1.6629 2.11256 2.82357 1.34143L2.82586 1.33992L2.82815 1.33841C3.43002 0.942973 4.06684 0.603485 4.73063 0.324198L4.73282 0.323277L4.73501 0.322366C4.8007 0.295069 4.85816 0.269313 4.92385 0.239863C4.93415 0.235245 4.94466 0.230537 4.95543 0.225717C5.02601 0.194129 5.12445 0.150213 5.22688 0.113009C5.4539 0.030544 5.78101 -0.0500088 6.17424 0.0386597C6.52386 0.117495 6.80513 0.304765 7.02295 0.475838ZM5.55964 2.30017C5.018 2.52821 4.49832 2.80523 4.00707 3.12779C3.02655 3.7795 2.60622 4.23601 2.30499 4.87969C2.1048 5.30747 1.73432 6.99665 3.81803 10.782C5.91651 14.5942 7.36183 16.5076 10.4087 19.546C13.4459 22.5748 15.7615 24.1906 19.1977 26.1178C21.3004 27.2954 22.6637 27.7161 23.5443 27.8259C24.375 27.9295 24.8107 27.7623 25.1129 27.6215C25.7616 27.3193 26.2202 26.9019 26.8708 25.9247C27.1942 25.4344 27.4718 24.9153 27.7001 24.3741C27.7309 24.3005 27.7611 24.2324 27.7866 24.1755C27.6867 24.057 27.5337 23.893 27.2982 23.6552C26.8532 23.2069 26.0271 22.6004 25.1027 22.0023C24.1951 21.4152 23.2726 20.887 22.6887 20.5925C22.2672 20.3802 21.9973 20.2451 21.7842 20.1581C21.5768 20.0735 21.5166 20.0752 21.5189 20.0752C21.5383 20.0752 21.4721 20.0374 20.7695 20.5593C20.6977 20.6127 20.6202 20.6722 20.538 20.7351C20.225 20.9751 19.846 21.2657 19.4704 21.4612C18.9092 21.7533 18.2649 21.9005 17.4884 21.7348C16.8087 21.5899 15.8922 21.1602 14.9495 20.573C13.9812 19.9699 12.8991 19.1467 11.8876 18.1385C10.8764 17.1304 10.0349 16.0352 9.41456 15.0549C8.81266 14.1038 8.35992 13.1684 8.21283 12.4832C8.04535 11.703 8.19804 11.0587 8.49214 10.5008C8.68166 10.1413 8.96497 9.76986 9.19814 9.46414C9.26674 9.37419 9.33101 9.28993 9.38727 9.21333C9.83768 8.60006 9.82711 8.50231 9.82595 8.49165C9.82592 8.49129 9.82589 8.49103 9.82589 8.49086C9.82585 8.47021 9.82109 8.39111 9.74194 8.17774C9.66099 7.95952 9.53498 7.68336 9.34097 7.26616C9.07603 6.69795 8.5567 5.79188 7.96198 4.88753C7.36038 3.97271 6.73987 3.14905 6.28646 2.70297L6.28569 2.70222L6.28493 2.70146C6.04568 2.46514 5.88113 2.31198 5.76234 2.21228C5.70461 2.23808 5.63506 2.2688 5.55964 2.30017Z" fill="#FFD900"/>
</svg>
